# xmcd
#
# Track frame offsets:
#	150
#	17795
#	36061
#	55752
#	69175
#	84221
#	99691
#	115932
#	132875
#	155903
#	169622
#	184175
#	199832
#	214461
#	229484
#	246272
#	264304
#
# Disc length: 3722 seconds
#
# Revision: 0
# Processed by: cddbd v1.5.2PL0 Copyright (c) Steve Scherf et al.
# Submitted via: audiograbber 1.83.01
#
DISCID=ee0e8811
DTITLE=Compilation - ESP453-04
DYEAR=2000
DGENRE=Country
TTITLE0=Vince Gill - Don't Let Our Love Start Slipping Away
TTITLE1=Doug Stone - Too Busy Being In Love
TTITLE2=Reba McEntire - Does He Love You
TTITLE3=Clay Walker - Live Until I Die
TTITLE4=Aaron Tippin - Kiss This
TTITLE5=Pam Tillis - Cleopatra Queen Of Denial
TTITLE6=Clint Black - When My Ship Comes In
TTITLE7=Toby Keith - Should've Been A Cowboy
TTITLE8=Patty Loveless - How Can I Help You Say Goodbye
TTITLE9=Mark Chesnutt - It Sure Is Monday
TTITLE10=John Anderson - Money In The Bank
TTITLE11=Reba McEntire - Take It Back
TTITLE12=Tracy Lawrence - Alibis
TTITLE13=Doug Stone - Why didn't I Think Of That
TTITLE14=Travis Tritt - Can I Trust You With My Heart
TTITLE15=Reba Mcentire - The Heart Is A Lonely Hunter
TTITLE16=Vince Gill - One More Last Chance
EXTD=
EXTT0=
EXTT1=
EXTT2=
EXTT3=
EXTT4=
EXTT5=
EXTT6=
EXTT7=
EXTT8=
EXTT9=
EXTT10=
EXTT11=
EXTT12=
EXTT13=
EXTT14=
EXTT15=
EXTT16=
PLAYORDER=
